{
    "accessors" : [
        {
            "bufferView" : 0, 
            "componentType" : 5123, 
            "count" : 936, 
            "max" : [
                538
            ], 
            "min" : [
                0
            ], 
            "type" : "SCALAR"
        }, 
        {
            "bufferView" : 1, 
            "componentType" : 5126, 
            "count" : 539, 
            "max" : [
                0.48860201239585876, 
                1.1878401041030884, 
                0.4812956154346466
            ], 
            "min" : [
                -0.48860201239585876, 
                0.0035897493362426758, 
                -0.48624125123023987
            ], 
            "type" : "VEC3"
        }, 
        {
            "bufferView" : 2, 
            "componentType" : 5126, 
            "count" : 539, 
            "max" : [
                0.999969482421875, 
                1.0, 
                0.999969482421875
            ], 
            "min" : [
                -0.999969482421875, 
                -1.0, 
                -1.0
            ], 
            "type" : "VEC3"
        }, 
        {
            "bufferView" : 3, 
            "componentType" : 5126, 
            "count" : 539, 
            "max" : [
                0.9999985694885254, 
                0.09832918643951416, 
                1.0, 
                1.0
            ], 
            "min" : [
                -1.0, 
                -0.09832918643951416, 
                -1.0, 
                1.0
            ], 
            "type" : "VEC4"
        }, 
        {
            "bufferView" : 4, 
            "componentType" : 5126, 
            "count" : 539, 
            "max" : [
                0.9787638783454895, 
                0.9956725239753723
            ], 
            "min" : [
                0.00836674589663744, 
                0.006380975246429443
            ], 
            "type" : "VEC2"
        }, 
        {
            "bufferView" : 5, 
            "componentType" : 5123, 
            "count" : 539, 
            "max" : [
                0, 
                0, 
                0, 
                0
            ], 
            "min" : [
                0, 
                0, 
                0, 
                0
            ], 
            "type" : "VEC4"
        }, 
        {
            "bufferView" : 6, 
            "componentType" : 5126, 
            "count" : 539, 
            "max" : [
                0.0, 
                0.0, 
                0.0, 
                0.0
            ], 
            "min" : [
                0.0, 
                0.0, 
                0.0, 
                0.0
            ], 
            "type" : "VEC4"
        }
    ], 
    "asset" : {
        "generator" : "Khronos Blender glTF 2.0 exporter", 
        "version" : "2.0"
    }, 
    "bufferViews" : [
        {
            "buffer" : 0, 
            "byteLength" : 1872, 
            "byteOffset" : 0, 
            "target" : 34963
        }, 
        {
            "buffer" : 0, 
            "byteLength" : 6468, 
            "byteOffset" : 1872, 
            "target" : 34962
        }, 
        {
            "buffer" : 0, 
            "byteLength" : 6468, 
            "byteOffset" : 8340, 
            "target" : 34962
        }, 
        {
            "buffer" : 0, 
            "byteLength" : 8624, 
            "byteOffset" : 14808, 
            "target" : 34962
        }, 
        {
            "buffer" : 0, 
            "byteLength" : 4312, 
            "byteOffset" : 23432, 
            "target" : 34962
        }, 
        {
            "buffer" : 0, 
            "byteLength" : 4312, 
            "byteOffset" : 27744, 
            "target" : 34962
        }, 
        {
            "buffer" : 0, 
            "byteLength" : 8624, 
            "byteOffset" : 32056, 
            "target" : 34962
        }
    ], 
    "buffers" : [
        {
            "byteLength" : 40680, 
            "uri" : "barrel_wooden.bin"
        }
    ], 
    "images" : [
        {
            "uri" : "barrel_wooden_new_1k_dif.png"
        }, 
        {
            "uri" : "barrel_wooden_new_1k_nor.png"
        }
    ], 
    "materials" : [
        {
            "name" : "barrel_wooden_new_1k", 
            "normalTexture" : {
                "index" : 1
            }, 
            "pbrMetallicRoughness" : {
                "baseColorFactor" : [
                    0.6400000190734865, 
                    0.6400000190734865, 
                    0.6400000190734865, 
                    1.0
                ], 
                "baseColorTexture" : {
                    "index" : 0
                }, 
                "metallicFactor" : 0.0
            }
        }
    ], 
    "meshes" : [
        {
            "name" : "barrel_wooden_new", 
            "primitives" : [
                {
                    "attributes" : {
                        "JOINTS_0" : 5, 
                        "NORMAL" : 2, 
                        "POSITION" : 1, 
                        "TANGENT" : 3, 
                        "TEXCOORD_0" : 4, 
                        "WEIGHTS_0" : 6
                    }, 
                    "indices" : 0, 
                    "material" : 0
                }
            ]
        }
    ], 
    "nodes" : [
        {
            "mesh" : 0, 
            "name" : "barrel_wooden_new", 
            "translation" : [
                0.0, 
                0.0, 
                -1.5
            ]
        }
    ], 
    "samplers" : [
        {}
    ], 
    "scene" : 0, 
    "scenes" : [
        {
            "name" : "build", 
            "nodes" : [
                0
            ]
        }
    ], 
    "textures" : [
        {
            "sampler" : 0, 
            "source" : 0
        }, 
        {
            "sampler" : 0, 
            "source" : 1
        }
    ]
}
