{
    "asset" : {
        "generator" : "Khronos glTF Blender I/O v0.9.36",
        "version" : "2.0"
    },
    "scene" : 0,
    "scenes" : [
        {
            "name" : "Scene",
            "nodes" : [
                5
            ]
        }
    ],
    "nodes" : [
        {
            "mesh" : 0,
            "name" : "crank_lo"
        },
        {
            "mesh" : 1,
            "name" : "Cube_3_lo"
        },
        {
            "mesh" : 2,
            "name" : "Cube_lo"
        },
        {
            "mesh" : 3,
            "name" : "roof_lo"
        },
        {
            "mesh" : 4,
            "name" : "well_lo"
        },
        {
            "children" : [
                0,
                1,
                2,
                3,
                4
            ],
            "name" : "Well_lo"
        }
    ],
    "materials" : [
        {
            "doubleSided" : true,
            "name" : "Well_mat",
            "normalTexture" : {
                "index" : 0,
                "scale" : 0.5400166511535645,
                "texCoord" : 0
            },
            "pbrMetallicRoughness" : {
                "baseColorTexture" : {
                    "index" : 1,
                    "texCoord" : 0
                },
                "metallicRoughnessTexture" : {
                    "index" : 2,
                    "texCoord" : 0
                },
                "roughnessFactor" : 0.9176478981971741
            }
        }
    ],
    "meshes" : [
        {
            "name" : "Mesh",
            "primitives" : [
                {
                    "attributes" : {
                        "POSITION" : 0,
                        "NORMAL" : 1,
                        "TEXCOORD_0" : 2
                    },
                    "indices" : 3,
                    "material" : 0
                }
            ]
        },
        {
            "name" : "Mesh.002",
            "primitives" : [
                {
                    "attributes" : {
                        "POSITION" : 4,
                        "NORMAL" : 5,
                        "TEXCOORD_0" : 6
                    },
                    "indices" : 7,
                    "material" : 0
                }
            ]
        },
        {
            "name" : "Mesh.003",
            "primitives" : [
                {
                    "attributes" : {
                        "POSITION" : 8,
                        "NORMAL" : 9,
                        "TEXCOORD_0" : 10
                    },
                    "indices" : 11,
                    "material" : 0
                }
            ]
        },
        {
            "name" : "Mesh.001",
            "primitives" : [
                {
                    "attributes" : {
                        "POSITION" : 12,
                        "NORMAL" : 13,
                        "TEXCOORD_0" : 14
                    },
                    "indices" : 15,
                    "material" : 0
                }
            ]
        },
        {
            "name" : "Mesh.004",
            "primitives" : [
                {
                    "attributes" : {
                        "POSITION" : 16,
                        "NORMAL" : 17,
                        "TEXCOORD_0" : 18
                    },
                    "indices" : 19,
                    "material" : 0
                }
            ]
        }
    ],
    "textures" : [
        {
            "source" : 0
        },
        {
            "source" : 1
        },
        {
            "source" : 2
        }
    ],
    "images" : [
        {
            "mimeType" : "image/png",
            "name" : "well_Normal",
            "uri" : "well_Normal.png"
        },
        {
            "mimeType" : "image/png",
            "name" : "well_AlbedoTransparency",
            "uri" : "well_AlbedoTransparency.png"
        },
        {
            "mimeType" : "image/png",
            "name" : "well_MetallicSmoothness",
            "uri" : "well_MetallicSmoothness.png"
        }
    ],
    "accessors" : [
        {
            "bufferView" : 0,
            "componentType" : 5126,
            "count" : 158,
            "max" : [
                0.10973960161209106,
                1.6056445837020874,
                0.6046615242958069
            ],
            "min" : [
                -0.10973956435918808,
                1.2113630771636963,
                -1.239391803741455
            ],
            "type" : "VEC3"
        },
        {
            "bufferView" : 1,
            "componentType" : 5126,
            "count" : 158,
            "type" : "VEC3"
        },
        {
            "bufferView" : 2,
            "componentType" : 5126,
            "count" : 158,
            "type" : "VEC2"
        },
        {
            "bufferView" : 3,
            "componentType" : 5123,
            "count" : 552,
            "type" : "SCALAR"
        },
        {
            "bufferView" : 4,
            "componentType" : 5126,
            "count" : 40,
            "max" : [
                0.14089974761009216,
                2.430008888244629,
                0.522162914276123
            ],
            "min" : [
                -0.11093278229236603,
                1.002434253692627,
                -0.5691847205162048
            ],
            "type" : "VEC3"
        },
        {
            "bufferView" : 5,
            "componentType" : 5126,
            "count" : 40,
            "type" : "VEC3"
        },
        {
            "bufferView" : 6,
            "componentType" : 5126,
            "count" : 40,
            "type" : "VEC2"
        },
        {
            "bufferView" : 7,
            "componentType" : 5123,
            "count" : 72,
            "type" : "SCALAR"
        },
        {
            "bufferView" : 8,
            "componentType" : 5126,
            "count" : 64,
            "max" : [
                0.45674511790275574,
                2.176112651824951,
                0.5124034285545349
            ],
            "min" : [
                -0.4181976914405823,
                1.679327130317688,
                -0.5552634000778198
            ],
            "type" : "VEC3"
        },
        {
            "bufferView" : 9,
            "componentType" : 5126,
            "count" : 64,
            "type" : "VEC3"
        },
        {
            "bufferView" : 10,
            "componentType" : 5126,
            "count" : 64,
            "type" : "VEC2"
        },
        {
            "bufferView" : 11,
            "componentType" : 5123,
            "count" : 96,
            "type" : "SCALAR"
        },
        {
            "bufferView" : 12,
            "componentType" : 5126,
            "count" : 36,
            "max" : [
                0.8154851198196411,
                2.5185062885284424,
                0.7054126858711243
            ],
            "min" : [
                -0.746094286441803,
                1.91652250289917,
                -0.7347802519798279
            ],
            "type" : "VEC3"
        },
        {
            "bufferView" : 13,
            "componentType" : 5126,
            "count" : 36,
            "type" : "VEC3"
        },
        {
            "bufferView" : 14,
            "componentType" : 5126,
            "count" : 36,
            "type" : "VEC2"
        },
        {
            "bufferView" : 15,
            "componentType" : 5123,
            "count" : 60,
            "type" : "SCALAR"
        },
        {
            "bufferView" : 16,
            "componentType" : 5126,
            "count" : 142,
            "max" : [
                0.6318504214286804,
                1.0237880945205688,
                0.5808057188987732
            ],
            "min" : [
                -0.6194109916687012,
                -0.017507636919617653,
                -0.6514464020729065
            ],
            "type" : "VEC3"
        },
        {
            "bufferView" : 17,
            "componentType" : 5126,
            "count" : 142,
            "type" : "VEC3"
        },
        {
            "bufferView" : 18,
            "componentType" : 5126,
            "count" : 142,
            "type" : "VEC2"
        },
        {
            "bufferView" : 19,
            "componentType" : 5123,
            "count" : 297,
            "type" : "SCALAR"
        }
    ],
    "bufferViews" : [
        {
            "buffer" : 0,
            "byteLength" : 1896,
            "byteOffset" : 0
        },
        {
            "buffer" : 0,
            "byteLength" : 1896,
            "byteOffset" : 1896
        },
        {
            "buffer" : 0,
            "byteLength" : 1264,
            "byteOffset" : 3792
        },
        {
            "buffer" : 0,
            "byteLength" : 1104,
            "byteOffset" : 5056
        },
        {
            "buffer" : 0,
            "byteLength" : 480,
            "byteOffset" : 6160
        },
        {
            "buffer" : 0,
            "byteLength" : 480,
            "byteOffset" : 6640
        },
        {
            "buffer" : 0,
            "byteLength" : 320,
            "byteOffset" : 7120
        },
        {
            "buffer" : 0,
            "byteLength" : 144,
            "byteOffset" : 7440
        },
        {
            "buffer" : 0,
            "byteLength" : 768,
            "byteOffset" : 7584
        },
        {
            "buffer" : 0,
            "byteLength" : 768,
            "byteOffset" : 8352
        },
        {
            "buffer" : 0,
            "byteLength" : 512,
            "byteOffset" : 9120
        },
        {
            "buffer" : 0,
            "byteLength" : 192,
            "byteOffset" : 9632
        },
        {
            "buffer" : 0,
            "byteLength" : 432,
            "byteOffset" : 9824
        },
        {
            "buffer" : 0,
            "byteLength" : 432,
            "byteOffset" : 10256
        },
        {
            "buffer" : 0,
            "byteLength" : 288,
            "byteOffset" : 10688
        },
        {
            "buffer" : 0,
            "byteLength" : 120,
            "byteOffset" : 10976
        },
        {
            "buffer" : 0,
            "byteLength" : 1704,
            "byteOffset" : 11096
        },
        {
            "buffer" : 0,
            "byteLength" : 1704,
            "byteOffset" : 12800
        },
        {
            "buffer" : 0,
            "byteLength" : 1136,
            "byteOffset" : 14504
        },
        {
            "buffer" : 0,
            "byteLength" : 594,
            "byteOffset" : 15640
        }
    ],
    "buffers" : [
        {
            "byteLength" : 16236,
            "uri" : "well.bin"
        }
    ]
}
